<svg width="25" height="24" viewBox="0 0 25 24" fill="none" xmlns="http://www.w3.org/2000/svg">
<path d="M18.5 5.00002H19.5V6.00002C19.5 6.26524 19.6054 6.51959 19.7929 6.70713C19.9804 6.89467 20.2348 7.00002 20.5 7.00002C20.7652 7.00002 21.0196 6.89467 21.2071 6.70713C21.3946 6.51959 21.5 6.26524 21.5 6.00002V5.00002H22.5C22.7652 5.00002 23.0196 4.89467 23.2071 4.70713C23.3946 4.51959 23.5 4.26524 23.5 4.00002C23.5 3.73481 23.3946 3.48045 23.2071 3.29292C23.0196 3.10538 22.7652 3.00002 22.5 3.00002H21.5V2.00002C21.5 1.73481 21.3946 1.48045 21.2071 1.29292C21.0196 1.10538 20.7652 1.00002 20.5 1.00002C20.2348 1.00002 19.9804 1.10538 19.7929 1.29292C19.6054 1.48045 19.5 1.73481 19.5 2.00002V3.00002H18.5C18.2348 3.00002 17.9804 3.10538 17.7929 3.29292C17.6054 3.48045 17.5 3.73481 17.5 4.00002C17.5 4.26524 17.6054 4.51959 17.7929 4.70713C17.9804 4.89467 18.2348 5.00002 18.5 5.00002ZM7.5 7.00002V17C7.5 17.2652 7.60536 17.5196 7.7929 17.7071C7.98043 17.8947 8.23479 18 8.5 18C8.76522 18 9.01958 17.8947 9.20711 17.7071C9.39465 17.5196 9.5 17.2652 9.5 17V7.00002C9.5 6.73481 9.39465 6.48045 9.20711 6.29292C9.01958 6.10538 8.76522 6.00002 8.5 6.00002C8.23479 6.00002 7.98043 6.10538 7.7929 6.29292C7.60536 6.48045 7.5 6.73481 7.5 7.00002ZM22.1 9.00002C21.9713 9.02626 21.849 9.0776 21.7402 9.15111C21.6313 9.22462 21.538 9.31886 21.4656 9.42843C21.3931 9.53801 21.343 9.66079 21.318 9.78975C21.293 9.91871 21.2937 10.0513 21.32 10.18C21.7104 12.0762 21.479 14.0478 20.6601 15.8021C19.8412 17.5563 18.4785 18.9997 16.7741 19.9181C15.0698 20.8364 13.1148 21.1807 11.1993 20.8999C9.28381 20.619 7.50992 19.728 6.14097 18.3591C4.77202 16.9901 3.88099 15.2162 3.60014 13.3007C3.31929 11.3852 3.66359 9.4302 4.58194 7.72589C5.50028 6.02158 6.94372 4.65882 8.69798 3.83991C10.4522 3.021 12.4238 2.78958 14.32 3.18002C14.5852 3.23307 14.8606 3.17858 15.0857 3.02855C15.3107 2.87852 15.467 2.64524 15.52 2.38002C15.573 2.11481 15.5186 1.83938 15.3685 1.61434C15.2185 1.38929 14.9852 1.23307 14.72 1.18002C13.9882 1.04367 13.2442 0.983353 12.5 1.00002C10.3244 1.00002 8.19767 1.64516 6.38873 2.85386C4.57979 4.06255 3.16989 5.78052 2.33733 7.7905C1.50477 9.80049 1.28693 12.0122 1.71137 14.146C2.1358 16.2798 3.18345 18.2398 4.72183 19.7782C6.26021 21.3166 8.22022 22.3642 10.354 22.7887C12.4878 23.2131 14.6995 22.9953 16.7095 22.1627C18.7195 21.3301 20.4375 19.9202 21.6462 18.1113C22.8549 16.3024 23.5 14.1756 23.5 12C23.5021 11.2611 23.4284 10.5239 23.28 9.80002C23.2561 9.66952 23.2064 9.54508 23.1338 9.43397C23.0613 9.32286 22.9674 9.22729 22.8576 9.15283C22.7478 9.07838 22.6242 9.02652 22.4942 9.00028C22.3641 8.97405 22.2301 8.97396 22.1 9.00002ZM11.5 9.00002V10C11.5044 10.7401 11.7822 11.4524 12.28 12C11.7822 12.5477 11.5044 13.26 11.5 14V15C11.5 15.7957 11.8161 16.5587 12.3787 17.1213C12.9413 17.684 13.7044 18 14.5 18H15.5C16.2957 18 17.0587 17.684 17.6213 17.1213C18.1839 16.5587 18.5 15.7957 18.5 15V14C18.4956 13.26 18.2178 12.5477 17.72 12C18.2178 11.4524 18.4956 10.7401 18.5 10V9.00002C18.5 8.20437 18.1839 7.44131 17.6213 6.8787C17.0587 6.31609 16.2957 6.00002 15.5 6.00002H14.5C13.7044 6.00002 12.9413 6.31609 12.3787 6.8787C11.8161 7.44131 11.5 8.20437 11.5 9.00002ZM16.5 15C16.5 15.2652 16.3946 15.5196 16.2071 15.7071C16.0196 15.8947 15.7652 16 15.5 16H14.5C14.2348 16 13.9804 15.8947 13.7929 15.7071C13.6054 15.5196 13.5 15.2652 13.5 15V14C13.5 13.7348 13.6054 13.4805 13.7929 13.2929C13.9804 13.1054 14.2348 13 14.5 13H15.5C15.7652 13 16.0196 13.1054 16.2071 13.2929C16.3946 13.4805 16.5 13.7348 16.5 14V15ZM16.5 9.00002V10C16.5 10.2652 16.3946 10.5196 16.2071 10.7071C16.0196 10.8947 15.7652 11 15.5 11H14.5C14.2348 11 13.9804 10.8947 13.7929 10.7071C13.6054 10.5196 13.5 10.2652 13.5 10V9.00002C13.5 8.73481 13.6054 8.48045 13.7929 8.29292C13.9804 8.10538 14.2348 8.00002 14.5 8.00002H15.5C15.7652 8.00002 16.0196 8.10538 16.2071 8.29292C16.3946 8.48045 16.5 8.73481 16.5 9.00002Z" fill="black"/>
</svg>
