<svg width="24" height="24" viewBox="0 0 24 24" fill="none" xmlns="http://www.w3.org/2000/svg">
<path d="M5.57062 7.887C5.28487 6.0015 6.61537 4.305 8.64787 3.6825C9.00874 3.57205 9.39817 3.60343 9.7367 3.77026C10.0752 3.93708 10.3374 4.22678 10.4696 4.58025L11.1214 6.32025C11.2262 6.60014 11.2449 6.90496 11.1753 7.1956C11.1057 7.48624 10.9508 7.74946 10.7306 7.9515L8.79187 9.72975C8.69607 9.81746 8.62469 9.92854 8.58473 10.0521C8.54476 10.1757 8.53757 10.3076 8.56387 10.4347L8.58112 10.5127L8.62912 10.7085C8.67187 10.8735 8.73637 11.106 8.82712 11.3835C9.00712 11.9347 9.29437 12.6757 9.72187 13.416C10.1494 14.1562 10.6474 14.7757 11.0344 15.207C11.2361 15.4314 11.4468 15.6476 11.6659 15.855L11.7259 15.9105C11.8228 15.9964 11.9404 16.0557 12.0671 16.0826C12.1938 16.1096 12.3253 16.1032 12.4489 16.0642L14.9584 15.2745C15.2435 15.1849 15.5489 15.1825 15.8354 15.2676C16.1219 15.3527 16.3764 15.5215 16.5664 15.7522L17.7536 17.1937C18.2486 17.7937 18.1901 18.6757 17.6209 19.206C16.0654 20.6557 13.9264 20.9535 12.4384 19.7565C10.6149 18.285 9.07737 16.491 7.90237 14.4637C6.71873 12.4372 5.92767 10.2065 5.57062 7.887ZM10.1351 10.533L11.7446 9.057C12.1851 8.65292 12.4948 8.12648 12.634 7.5452C12.7733 6.96391 12.7357 6.35428 12.5261 5.7945L11.8736 4.0545C11.6074 3.34359 11.0801 2.76097 10.3992 2.4254C9.71831 2.08982 8.93505 2.02656 8.20912 2.2485C5.68536 3.02175 3.65887 5.2845 4.08787 8.11125C4.47296 10.6177 5.32713 13.029 6.60562 15.219C7.87296 17.4051 9.53125 19.3398 11.4979 20.9265C13.7291 22.719 16.7096 22.1077 18.6439 20.304C19.1976 19.7883 19.5337 19.0808 19.5835 18.3257C19.6332 17.5707 19.3929 16.8251 18.9116 16.2412L17.7244 14.7997C17.3444 14.3381 16.8352 14.0004 16.2621 13.8302C15.6889 13.6599 15.078 13.6648 14.5076 13.8442L12.4249 14.4997C12.3316 14.4039 12.2403 14.3061 12.1511 14.2065C11.7229 13.7331 11.3442 13.2171 11.0209 12.6667C10.7057 12.1114 10.4481 11.5254 10.2521 10.9177C10.2105 10.7906 10.1715 10.6625 10.1351 10.5337" fill="black"/>
</svg>
