<svg width="24" height="24" viewBox="0 0 24 24" fill="none" xmlns="http://www.w3.org/2000/svg">
<g clip-path="url(#clip0_135_4344)">
<path fill-rule="evenodd" clip-rule="evenodd" d="M23.3777 2.05371C23.5513 2.1971 23.6949 2.37328 23.8004 2.57219C23.9059 2.7711 23.9712 2.98885 23.9925 3.21299C24.0138 3.43713 23.9908 3.66328 23.9247 3.87852C23.8586 4.09375 23.7508 4.29387 23.6074 4.46743L9.82452 21.1474L9.81938 21.1509C9.50624 21.5278 9.11287 21.8301 8.668 22.0356C8.22313 22.2412 7.73797 22.3448 7.24795 22.3389C6.75057 22.3332 6.26094 22.2149 5.81586 21.9928C5.37079 21.7707 4.98183 21.4506 4.67824 21.0566L4.67652 21.0531L0.35995 15.5057C0.215818 15.3287 0.1085 15.1246 0.0442933 14.9055C-0.0199133 14.6865 -0.0397148 14.4568 -0.0139492 14.2299C0.0118163 14.0031 0.0826299 13.7837 0.194336 13.5846C0.306042 13.3855 0.45639 13.2107 0.636558 13.0705C0.816725 12.9303 1.02308 12.8275 1.24352 12.7681C1.46396 12.7087 1.69403 12.694 1.92025 12.7247C2.14646 12.7555 2.36426 12.8311 2.56085 12.9472C2.75745 13.0632 2.92888 13.2174 3.06509 13.4006L7.28909 18.8297L20.9622 2.28343C21.1056 2.10984 21.2818 1.96619 21.4807 1.8607C21.6796 1.75521 21.8974 1.68993 22.1215 1.6686C22.3457 1.64727 22.5718 1.6703 22.787 1.73638C23.0023 1.80246 23.2024 1.91029 23.376 2.05371H23.3777Z" fill="#156064"/>
</g>
<defs>
<clipPath id="clip0_135_4344">
<rect width="24" height="24" fill="white"/>
</clipPath>
</defs>
</svg>
