<svg width="32" height="32" viewBox="0 0 32 32" fill="none" xmlns="http://www.w3.org/2000/svg">
<path fill-rule="evenodd" clip-rule="evenodd" d="M19.5601 8.44002C19.841 8.72127 19.9988 9.10252 19.9988 9.50002C19.9988 9.89752 19.841 10.2788 19.5601 10.56L14.1201 16L19.5601 21.44C19.7075 21.5773 19.8257 21.7429 19.9077 21.9269C19.9897 22.1109 20.0338 22.3096 20.0373 22.511C20.0409 22.7124 20.0038 22.9124 19.9284 23.0992C19.8529 23.286 19.7407 23.4557 19.5982 23.5981C19.4558 23.7405 19.2861 23.8528 19.0993 23.9283C18.9126 24.0037 18.7125 24.0408 18.5111 24.0372C18.3097 24.0337 18.1111 23.9896 17.9271 23.9076C17.7431 23.8256 17.5775 23.7074 17.4401 23.56L10.9401 17.06C10.6592 16.7788 10.5015 16.3975 10.5015 16C10.5015 15.6025 10.6592 15.2213 10.9401 14.94L17.4401 8.44002C17.7214 8.15912 18.1026 8.00134 18.5001 8.00134C18.8976 8.00134 19.2789 8.15912 19.5601 8.44002Z" fill="black"/>
</svg>
