<svg width="24" height="24" viewBox="0 0 24 24" fill="none" xmlns="http://www.w3.org/2000/svg">
<path d="M9.29049 6.71002C9.19779 6.80254 9.12424 6.91242 9.07406 7.0334C9.02388 7.15437 8.99805 7.28405 8.99805 7.41502C8.99805 7.54599 9.02388 7.67567 9.07406 7.79665C9.12424 7.91762 9.19779 8.02751 9.29049 8.12002L13.1705 12L9.29049 15.88C9.19791 15.9726 9.12447 16.0825 9.07436 16.2035C9.02426 16.3244 8.99847 16.4541 8.99847 16.585C8.99847 16.716 9.02426 16.8456 9.07436 16.9666C9.12447 17.0875 9.19791 17.1974 9.29049 17.29C9.38307 17.3826 9.49298 17.456 9.61395 17.5061C9.73491 17.5563 9.86456 17.582 9.99549 17.582C10.1264 17.582 10.2561 17.5563 10.377 17.5061C10.498 17.456 10.6079 17.3826 10.7005 17.29L15.2905 12.7C15.3832 12.6075 15.4567 12.4976 15.5069 12.3766C15.5571 12.2557 15.5829 12.126 15.5829 11.995C15.5829 11.8641 15.5571 11.7344 15.5069 11.6134C15.4567 11.4924 15.3832 11.3825 15.2905 11.29L10.7005 6.70002C10.3205 6.32002 9.68049 6.32002 9.29049 6.71002Z" fill="#7C7C7C"/>
</svg>
