<svg width="17" height="16" viewBox="0 0 17 16" fill="none" xmlns="http://www.w3.org/2000/svg">
<path fill-rule="evenodd" clip-rule="evenodd" d="M14.4493 7.83336H12.6533C11.704 7.83336 10.9993 8.53936 10.9993 9.33336C10.9993 10.1274 11.704 10.8334 12.6527 10.8334H14.4647C14.602 10.8247 14.6613 10.732 14.666 10.676V7.9907C14.6613 7.9347 14.602 7.84203 14.4647 7.83403L14.4493 7.83336ZM14.4 6.83336C14.4444 6.83292 14.4867 6.83381 14.5267 6.83603C15.1067 6.87136 15.6207 7.30936 15.664 7.92136C15.6667 7.96136 15.6667 8.0047 15.6667 8.0447V10.622C15.6667 10.662 15.6667 10.7054 15.664 10.7454C15.6207 11.3574 15.1067 11.7954 14.526 11.8314C14.4864 11.8331 14.4442 11.8338 14.3993 11.8334H12.654C11.224 11.8334 10 10.748 10 9.33336C10 7.9187 11.224 6.83336 12.6533 6.83336H14.4Z" fill="#7C7C7C"/>
<path d="M13.1673 9.33341C13.1673 9.51023 13.0971 9.67979 12.9721 9.80482C12.847 9.92984 12.6775 10.0001 12.5007 10.0001C12.3238 10.0001 12.1543 9.92984 12.0292 9.80482C11.9042 9.67979 11.834 9.51023 11.834 9.33341C11.834 9.1566 11.9042 8.98703 12.0292 8.86201C12.1543 8.73699 12.3238 8.66675 12.5007 8.66675C12.6775 8.66675 12.847 8.73699 12.9721 8.86201C13.0971 8.98703 13.1673 9.1566 13.1673 9.33341Z" fill="#7C7C7C"/>
<path fill-rule="evenodd" clip-rule="evenodd" d="M14.4007 6.83327C14.4451 6.83282 14.4873 6.83371 14.5273 6.83593C14.6773 6.8446 14.8227 6.8806 14.9573 6.93993C14.886 5.86927 14.6893 5.04394 14.0733 4.42727C13.574 3.9286 12.9413 3.70727 12.16 3.60194L12.132 3.5986L12.1107 3.58327L9.61998 1.93194C9.18786 1.65023 8.68315 1.50024 8.16732 1.50024C7.65148 1.50024 7.14677 1.65023 6.71465 1.93194L4.22465 3.58327L4.20265 3.5986L4.17465 3.60194C3.39332 3.70727 2.76065 3.9286 2.26132 4.42727C1.76265 4.9266 1.54132 5.55927 1.43598 6.3406C1.33398 7.1006 1.33398 8.0706 1.33398 9.29593V9.3706C1.33398 10.5959 1.33398 11.5666 1.43598 12.3259C1.54132 13.1073 1.76265 13.7399 2.26132 14.2393C2.76065 14.7379 3.39332 14.9593 4.17465 15.0646C4.93465 15.1666 5.90465 15.1666 7.12998 15.1666H9.20465C10.43 15.1666 11.4007 15.1666 12.16 15.0646C12.9413 14.9593 13.574 14.7379 14.0733 14.2393C14.6893 13.6226 14.886 12.7973 14.9573 11.7259C14.8218 11.7864 14.6782 11.8215 14.5267 11.8313C14.4871 11.833 14.4449 11.8337 14.4 11.8333H13.946C13.87 12.7279 13.6987 13.1999 13.366 13.5319C13.084 13.8139 12.6973 13.9833 12.0267 14.0733C11.342 14.1653 10.4387 14.1666 9.16732 14.1666H7.16732C5.89598 14.1666 4.99332 14.1653 4.30732 14.0733C3.63732 13.9833 3.25065 13.8139 2.96865 13.5319C2.68665 13.2499 2.51732 12.8633 2.42732 12.1926C2.33532 11.5079 2.33398 10.6046 2.33398 9.33327C2.33398 8.06193 2.33532 7.15927 2.42732 6.47327C2.51732 5.80327 2.68665 5.4166 2.96865 5.1346C3.25065 4.8526 3.63732 4.68327 4.30798 4.59327C4.99332 4.50127 5.89598 4.49994 7.16732 4.49994H9.16732C10.4387 4.49994 11.342 4.50127 12.0273 4.59327C12.6973 4.68327 13.084 4.8526 13.366 5.1346C13.6987 5.4666 13.87 5.93927 13.946 6.83327H14.4007ZM7.12998 3.49994H9.20465C9.5491 3.49994 9.87354 3.5006 10.178 3.50194L9.06732 2.76527C8.53398 2.41194 7.80065 2.41194 7.26732 2.76527L6.15598 3.50194C6.46087 3.50016 6.78532 3.49949 7.12932 3.49994" fill="#7C7C7C"/>
<path d="M4.5 6.16675C4.36739 6.16675 4.24021 6.21943 4.14645 6.31319C4.05268 6.40696 4 6.53414 4 6.66675C4 6.79936 4.05268 6.92653 4.14645 7.0203C4.24021 7.11407 4.36739 7.16675 4.5 7.16675H7.16667C7.29927 7.16675 7.42645 7.11407 7.52022 7.0203C7.61399 6.92653 7.66667 6.79936 7.66667 6.66675C7.66667 6.53414 7.61399 6.40696 7.52022 6.31319C7.42645 6.21943 7.29927 6.16675 7.16667 6.16675H4.5Z" fill="#7C7C7C"/>
<path d="M13.1673 9.33341C13.1673 9.51023 13.0971 9.67979 12.9721 9.80482C12.847 9.92984 12.6775 10.0001 12.5007 10.0001C12.3238 10.0001 12.1543 9.92984 12.0292 9.80482C11.9042 9.67979 11.834 9.51023 11.834 9.33341C11.834 9.1566 11.9042 8.98703 12.0292 8.86201C12.1543 8.73699 12.3238 8.66675 12.5007 8.66675C12.6775 8.66675 12.847 8.73699 12.9721 8.86201C13.0971 8.98703 13.1673 9.1566 13.1673 9.33341Z" fill="#7C7C7C"/>
</svg>
