<svg width="24" height="24" viewBox="0 0 24 24" fill="none" xmlns="http://www.w3.org/2000/svg">
<path d="M17.0004 11.8051C17.0004 11.4591 17.0004 11.2861 17.0524 11.1321C17.2034 10.6841 17.6024 10.5111 18.0024 10.3291C18.4504 10.1241 18.6744 10.0221 18.8974 10.0041C19.1494 9.98412 19.4024 10.0381 19.6184 10.1591C19.9044 10.3191 20.1044 10.6251 20.3084 10.8731C21.2514 12.0191 21.7234 12.5921 21.8954 13.2231C22.0354 13.7331 22.0354 14.2671 21.8954 14.7761C21.6444 15.6981 20.8494 16.4701 20.2604 17.1861C19.9594 17.5511 19.8084 17.7341 19.6184 17.8411C19.3987 17.963 19.1478 18.0169 18.8974 17.9961C18.6744 17.9781 18.4504 17.8761 18.0014 17.6711C17.6014 17.4891 17.2034 17.3161 17.0524 16.8681C17.0004 16.7141 17.0004 16.5411 17.0004 16.1961V11.8051ZM7.0004 11.8051C7.0004 11.3691 6.9884 10.9781 6.6364 10.6721C6.5084 10.5611 6.3384 10.4841 5.9994 10.3291C5.5504 10.1251 5.3264 10.0221 5.1034 10.0041C4.4364 9.95012 4.0774 10.4061 3.6934 10.8741C2.7494 12.0191 2.2774 12.5921 2.1044 13.2241C1.9652 13.7324 1.9652 14.2688 2.1044 14.7771C2.3564 15.6981 3.1524 16.4711 3.7404 17.1861C4.1114 17.6361 4.4664 18.0471 5.1034 17.9961C5.3264 17.9781 5.5504 17.8761 5.9994 17.6711C6.3394 17.5171 6.5084 17.4391 6.6364 17.3281C6.9884 17.0221 7.0004 16.6311 7.0004 16.1961V11.8051Z" stroke="#156064" stroke-width="2" stroke-linecap="round" stroke-linejoin="round"/>
<path d="M20 10.5V9C20 5.134 16.418 2 12 2C7.582 2 4 5.134 4 9V10.5M20 17.5C20 22 16 22 12 22" stroke="#156064" stroke-width="2" stroke-linecap="round" stroke-linejoin="round"/>
</svg>
