<svg width="120" height="120" viewBox="0 0 120 120" fill="none" xmlns="http://www.w3.org/2000/svg">
<g clip-path="url(#clip0_145_7841)">
<path d="M0 60C0 26.8629 26.8629 0 60 0C93.1371 0 120 26.8629 120 60C120 93.1371 93.1371 120 60 120C26.8629 120 0 93.1371 0 60Z" fill="#156064"/>
<path d="M31.0735 72V49.6H34.1775L47.8735 67.936L47.3615 68.224C47.2762 67.6907 47.2015 67.1147 47.1375 66.496C47.0735 65.856 47.0095 65.184 46.9455 64.48C46.9028 63.7547 46.8602 62.9973 46.8175 62.208C46.7962 61.3973 46.7748 60.5547 46.7535 59.68C46.7322 58.8053 46.7215 57.8987 46.7215 56.96V49.6H50.1775V72H47.0095L33.5375 54.336L33.8895 53.888C33.9962 55.1893 34.0815 56.2987 34.1455 57.216C34.2308 58.112 34.2948 58.88 34.3375 59.52C34.4015 60.1387 34.4442 60.6507 34.4655 61.056C34.4868 61.44 34.4975 61.76 34.4975 62.016C34.5188 62.272 34.5295 62.496 34.5295 62.688V72H31.0735ZM53.8885 76.224L67.0725 49.6H70.2405L57.0885 76.224H53.8885ZM68.7375 72L77.4095 49.6H80.9295L89.5375 72H85.8575L80.7375 58.496C80.6735 58.3467 80.5455 57.984 80.3535 57.408C80.1828 56.832 79.9802 56.192 79.7455 55.488C79.5108 54.784 79.2975 54.144 79.1055 53.568C78.9135 52.9707 78.7855 52.5867 78.7215 52.416L79.4575 52.384C79.3295 52.7467 79.1695 53.2053 78.9775 53.76C78.8068 54.3147 78.6148 54.9013 78.4015 55.52C78.2095 56.1387 78.0175 56.7253 77.8255 57.28C77.6335 57.8133 77.4735 58.2613 77.3455 58.624L72.2575 72H68.7375ZM72.5775 66.432L73.8575 63.104H84.0335L85.5055 66.432H72.5775Z" fill="white"/>
</g>
<defs>
<clipPath id="clip0_145_7841">
<path d="M0 60C0 26.8629 26.8629 0 60 0C93.1371 0 120 26.8629 120 60C120 93.1371 93.1371 120 60 120C26.8629 120 0 93.1371 0 60Z" fill="white"/>
</clipPath>
</defs>
</svg>
