<svg width="25" height="24" viewBox="0 0 25 24" fill="none" xmlns="http://www.w3.org/2000/svg">
<path fill-rule="evenodd" clip-rule="evenodd" d="M17.9167 4.5H7.41669C6.81995 4.5 6.24765 4.73705 5.8257 5.15901C5.40374 5.58097 5.16669 6.15326 5.16669 6.75V17.25C5.16669 17.8467 5.40374 18.419 5.8257 18.841C6.24765 19.2629 6.81995 19.5 7.41669 19.5H17.9167C18.5134 19.5 19.0857 19.2629 19.5077 18.841C19.9296 18.419 20.1667 17.8467 20.1667 17.25V6.75C20.1667 6.15326 19.9296 5.58097 19.5077 5.15901C19.0857 4.73705 18.5134 4.5 17.9167 4.5ZM7.41669 2.25C6.22321 2.25 5.07862 2.72411 4.23471 3.56802C3.39079 4.41193 2.91669 5.55653 2.91669 6.75V17.25C2.91669 18.4435 3.39079 19.5881 4.23471 20.432C5.07862 21.2759 6.22321 21.75 7.41669 21.75H17.9167C19.1102 21.75 20.2548 21.2759 21.0987 20.432C21.9426 19.5881 22.4167 18.4435 22.4167 17.25V6.75C22.4167 5.55653 21.9426 4.41193 21.0987 3.56802C20.2548 2.72411 19.1102 2.25 17.9167 2.25H7.41669ZM17.3917 9C17.3917 9.22653 17.3471 9.45084 17.2604 9.66013C17.1737 9.86942 17.0466 10.0596 16.8864 10.2198C16.7263 10.3799 16.5361 10.507 16.3268 10.5937C16.1175 10.6804 15.8932 10.725 15.6667 10.725C15.4402 10.725 15.2158 10.6804 15.0066 10.5937C14.7973 10.507 14.6071 10.3799 14.4469 10.2198C14.2867 10.0596 14.1597 9.86942 14.073 9.66013C13.9863 9.45084 13.9417 9.22653 13.9417 9C13.9417 8.5425 14.1234 8.10374 14.4469 7.78024C14.7704 7.45674 15.2092 7.275 15.6667 7.275C16.1242 7.275 16.5629 7.45674 16.8864 7.78024C17.2099 8.10374 17.3917 8.5425 17.3917 9ZM9.66669 16.725C9.89322 16.725 10.1175 16.6804 10.3268 16.5937C10.5361 16.507 10.7263 16.3799 10.8864 16.2198C11.0466 16.0596 11.1737 15.8694 11.2604 15.6601C11.3471 15.4508 11.3917 15.2265 11.3917 15C11.3917 14.7735 11.3471 14.5492 11.2604 14.3399C11.1737 14.1306 11.0466 13.9404 10.8864 13.7802C10.7263 13.6201 10.5361 13.493 10.3268 13.4063C10.1175 13.3196 9.89322 13.275 9.66669 13.275C9.20919 13.275 8.77043 13.4567 8.44693 13.7802C8.12343 14.1037 7.94169 14.5425 7.94169 15C7.94169 15.4575 8.12343 15.8963 8.44693 16.2198C8.77043 16.5433 9.20919 16.725 9.66669 16.725Z" fill="#8C8C8C"/>
</svg>
