<svg width="25" height="24" viewBox="0 0 25 24" fill="none" xmlns="http://www.w3.org/2000/svg">
<path d="M14.3334 18C14.3334 19.4 14.3334 20.1 14.6064 20.635C14.846 21.1051 15.2283 21.4874 15.6984 21.727C16.2334 22 16.9334 22 18.3334 22C19.7334 22 20.4334 22 20.9684 21.727C21.4385 21.4874 21.8207 21.1051 22.0604 20.635C22.3334 20.1 22.3334 19.4 22.3334 18C22.3334 16.6 22.3334 15.9 22.0604 15.365C21.8207 14.8949 21.4385 14.5126 20.9684 14.273C20.4334 14 19.7334 14 18.3334 14M14.3334 18C14.3334 16.6 14.3334 15.9 14.6064 15.365C14.846 14.8949 15.2283 14.5126 15.6984 14.273C16.2334 14 16.9334 14 18.3334 14M14.3334 18C14.3334 19.4 14.3334 20.1 14.0604 20.635C13.8207 21.1051 13.4385 21.4874 12.9684 21.727C12.4334 22 11.7334 22 10.3334 22C8.93337 22 8.23337 22 7.69837 21.727C7.22788 21.4875 6.84527 21.1053 6.60537 20.635C6.33337 20.1 6.33337 19.4 6.33337 18C6.33337 16.6 6.33337 15.9 6.60537 15.365C6.84527 14.8947 7.22788 14.5125 7.69837 14.273C8.23337 14 8.93337 14 10.3334 14C11.7334 14 12.4334 14 12.9684 14.273C13.4385 14.5126 13.8207 14.8949 14.0604 15.365C14.3334 15.9 14.3334 16.6 14.3334 18ZM18.3334 14C19.7334 14 20.4334 14 20.9684 13.727C21.4385 13.4874 21.8207 13.1051 22.0604 12.635C22.3334 12.1 22.3334 11.4 22.3334 10C22.3334 8.6 22.3334 7.9 22.0604 7.365C21.8209 6.89451 21.4386 6.51189 20.9684 6.272C20.4334 6 19.7334 6 18.3334 6C16.9334 6 16.2334 6 15.6984 6.272C15.2281 6.51189 14.8458 6.89451 14.6064 7.365C14.3334 7.9 14.3334 8.6 14.3334 10C14.3334 11.4 14.3334 12.1 14.6064 12.635C14.846 13.1051 15.2283 13.4874 15.6984 13.727C16.2334 14 16.9334 14 18.3334 14ZM10.3334 6C10.3334 7.4 10.3334 8.1 10.0614 8.635C9.82165 9.10565 9.43902 9.48827 8.96837 9.728C8.43337 10 7.73337 10 6.33337 10C4.93337 10 4.23337 10 3.69837 9.728C3.22773 9.48827 2.8451 9.10565 2.60537 8.635C2.33337 8.1 2.33337 7.4 2.33337 6C2.33337 4.6 2.33337 3.9 2.60537 3.365C2.8451 2.89435 3.22773 2.51173 3.69837 2.272C4.23337 2 4.93337 2 6.33337 2C7.73337 2 8.43337 2 8.96837 2.272C9.43902 2.51173 9.82165 2.89435 10.0614 3.365C10.3334 3.9 10.3334 4.6 10.3334 6Z" stroke="#8C8C8C" stroke-width="1.5" stroke-linecap="round" stroke-linejoin="round"/>
</svg>
