<svg width="25" height="24" viewBox="0 0 25 24" fill="none" xmlns="http://www.w3.org/2000/svg">
<path d="M14.1666 18C14.1666 19.4 14.1666 20.1 14.4396 20.635C14.6793 21.1051 15.0615 21.4874 15.5316 21.727C16.0666 22 16.7666 22 18.1666 22C19.5666 22 20.2666 22 20.8016 21.727C21.2717 21.4874 21.654 21.1051 21.8936 20.635C22.1666 20.1 22.1666 19.4 22.1666 18C22.1666 16.6 22.1666 15.9 21.8936 15.365C21.654 14.8949 21.2717 14.5126 20.8016 14.273C20.2666 14 19.5666 14 18.1666 14M14.1666 18C14.1666 16.6 14.1666 15.9 14.4396 15.365C14.6793 14.8949 15.0615 14.5126 15.5316 14.273C16.0666 14 16.7666 14 18.1666 14M14.1666 18C14.1666 19.4 14.1666 20.1 13.8936 20.635C13.654 21.1051 13.2717 21.4874 12.8016 21.727C12.2666 22 11.5666 22 10.1666 22C8.76663 22 8.06663 22 7.53163 21.727C7.06113 21.4875 6.67852 21.1053 6.43863 20.635C6.16663 20.1 6.16663 19.4 6.16663 18C6.16663 16.6 6.16663 15.9 6.43863 15.365C6.67852 14.8947 7.06113 14.5125 7.53163 14.273C8.06663 14 8.76663 14 10.1666 14C11.5666 14 12.2666 14 12.8016 14.273C13.2717 14.5126 13.654 14.8949 13.8936 15.365C14.1666 15.9 14.1666 16.6 14.1666 18ZM18.1666 14C19.5666 14 20.2666 14 20.8016 13.727C21.2717 13.4874 21.654 13.1051 21.8936 12.635C22.1666 12.1 22.1666 11.4 22.1666 10C22.1666 8.6 22.1666 7.9 21.8936 7.365C21.6542 6.89451 21.2719 6.51189 20.8016 6.272C20.2666 6 19.5666 6 18.1666 6C16.7666 6 16.0666 6 15.5316 6.272C15.0614 6.51189 14.6791 6.89451 14.4396 7.365C14.1666 7.9 14.1666 8.6 14.1666 10C14.1666 11.4 14.1666 12.1 14.4396 12.635C14.6793 13.1051 15.0615 13.4874 15.5316 13.727C16.0666 14 16.7666 14 18.1666 14ZM10.1666 6C10.1666 7.4 10.1666 8.1 9.89463 8.635C9.6549 9.10565 9.27227 9.48827 8.80163 9.728C8.26663 10 7.56663 10 6.16663 10C4.76663 10 4.06663 10 3.53163 9.728C3.06098 9.48827 2.67835 9.10565 2.43863 8.635C2.16663 8.1 2.16663 7.4 2.16663 6C2.16663 4.6 2.16663 3.9 2.43863 3.365C2.67835 2.89435 3.06098 2.51173 3.53163 2.272C4.06663 2 4.76663 2 6.16663 2C7.56663 2 8.26663 2 8.80163 2.272C9.27227 2.51173 9.6549 2.89435 9.89463 3.365C10.1666 3.9 10.1666 4.6 10.1666 6Z" stroke="#156064" stroke-width="1.5" stroke-linecap="round" stroke-linejoin="round"/>
</svg>
