<svg width="24" height="24" viewBox="0 0 24 24" fill="none" xmlns="http://www.w3.org/2000/svg">
<path d="M0 9.375H24V14.625H0V9.375Z" fill="#F9CB38"/>
<path d="M20.25 3.75H3.75C1.26488 3.75 0 5.59688 0 7.875V9.375H24V7.875C24 5.59688 22.7351 3.75 20.25 3.75Z" fill="#EC1C24"/>
<path d="M0 16.125C0 18.4031 1.26488 20.25 3.75 20.25H20.25C22.7351 20.25 24 18.4031 24 16.125V14.625H0V16.125Z" fill="#137A08"/>
<path d="M11.9168 9.68433L12.6469 11.1637L14.28 11.403L13.0992 12.555L13.3782 14.1798L11.9168 13.4122L10.4558 14.1798L10.7348 12.555L9.55353 11.403L11.187 11.1637L11.9168 9.68433Z" fill="#25333A"/>
</svg>
