<svg width="24" height="24" viewBox="0 0 24 24" fill="none" xmlns="http://www.w3.org/2000/svg">
<path d="M9.42482 9.77525C9.36909 9.71937 9.30288 9.67504 9.22999 9.64479C9.15709 9.61455 9.07895 9.59898 9.00002 9.59898C8.9211 9.59898 8.84296 9.61455 8.77006 9.64479C8.69717 9.67504 8.63096 9.71937 8.57522 9.77525L7.80002 10.5516L7.02482 9.77525C6.91216 9.66258 6.75936 9.59929 6.60002 9.59929C6.44069 9.59929 6.28789 9.66258 6.17522 9.77525C6.06256 9.88791 5.99927 10.0407 5.99927 10.2C5.99927 10.3594 6.06256 10.5122 6.17522 10.6248L6.95162 11.4L6.17522 12.1752C6.06256 12.2879 5.99927 12.4407 5.99927 12.6C5.99927 12.7594 6.06256 12.9122 6.17522 13.0248C6.28789 13.1375 6.44069 13.2008 6.60002 13.2008C6.75936 13.2008 6.91216 13.1375 7.02482 13.0248L7.80002 12.2484L8.57522 13.0248C8.68789 13.1375 8.84069 13.2008 9.00002 13.2008C9.15936 13.2008 9.31216 13.1375 9.42482 13.0248C9.53749 12.9122 9.60078 12.7594 9.60078 12.6C9.60078 12.4407 9.53749 12.2879 9.42482 12.1752L8.64842 11.4L9.42482 10.6248C9.4807 10.5691 9.52503 10.5029 9.55528 10.43C9.58553 10.3571 9.6011 10.279 9.6011 10.2C9.6011 10.1211 9.58553 10.043 9.55528 9.97009C9.52503 9.89719 9.4807 9.83098 9.42482 9.77525ZM13.3752 9.77525C13.431 9.71946 13.4972 9.67521 13.5701 9.64502C13.643 9.61483 13.7211 9.59929 13.8 9.59929C13.8789 9.59929 13.957 9.61483 14.0299 9.64502C14.1028 9.67521 14.169 9.71946 14.2248 9.77525C14.2806 9.83103 14.3249 9.89726 14.3551 9.97015C14.3852 10.043 14.4008 10.1212 14.4008 10.2C14.4008 10.2789 14.3852 10.3571 14.3551 10.4299C14.3249 10.5028 14.2806 10.5691 14.2248 10.6248L13.4484 11.4L14.2248 12.1752C14.3375 12.2879 14.4008 12.4407 14.4008 12.6C14.4008 12.7594 14.3375 12.9122 14.2248 13.0248C14.1122 13.1375 13.9594 13.2008 13.8 13.2008C13.6407 13.2008 13.4879 13.1375 13.3752 13.0248L12.6 12.2484L11.8248 13.0248C11.7122 13.1375 11.5594 13.2008 11.4 13.2008C11.2407 13.2008 11.0879 13.1375 10.9752 13.0248C10.8626 12.9122 10.7993 12.7594 10.7993 12.6C10.7993 12.4407 10.8626 12.2879 10.9752 12.1752L11.7516 11.4L10.9752 10.6248C10.8626 10.5122 10.7993 10.3594 10.7993 10.2C10.7993 10.0407 10.8626 9.88791 10.9752 9.77525C11.0879 9.66258 11.2407 9.59929 11.4 9.59929C11.5594 9.59929 11.7122 9.66258 11.8248 9.77525L12.6 10.5516L13.3752 9.77525ZM16.2 12C16.0409 12 15.8883 12.0633 15.7758 12.1758C15.6632 12.2883 15.6 12.4409 15.6 12.6C15.6 12.7592 15.6632 12.9118 15.7758 13.0243C15.8883 13.1368 16.0409 13.2 16.2 13.2H18.6C18.7592 13.2 18.9118 13.1368 19.0243 13.0243C19.1368 12.9118 19.2 12.7592 19.2 12.6C19.2 12.4409 19.1368 12.2883 19.0243 12.1758C18.9118 12.0633 18.7592 12 18.6 12H16.2ZM5.70002 4.80005C4.82481 4.80005 3.98544 5.14773 3.36657 5.7666C2.7477 6.38547 2.40002 7.22483 2.40002 8.10005V14.7C2.40002 15.5753 2.7477 16.4146 3.36657 17.0335C3.98544 17.6524 4.82481 18 5.70002 18H18.3C19.1752 18 20.0146 17.6524 20.6335 17.0335C21.2523 16.4146 21.6 15.5753 21.6 14.7V8.10005C21.6 7.22483 21.2523 6.38547 20.6335 5.7666C20.0146 5.14773 19.1752 4.80005 18.3 4.80005H5.70002ZM3.60002 8.10005C3.60002 6.94085 4.54082 6.00005 5.70002 6.00005H18.3C19.4592 6.00005 20.4 6.94085 20.4 8.10005V14.7C20.4 15.257 20.1788 15.7911 19.7849 16.185C19.3911 16.5788 18.857 16.8 18.3 16.8H5.70002C5.14307 16.8 4.60893 16.5788 4.2151 16.185C3.82127 15.7911 3.60002 15.257 3.60002 14.7V8.10005Z" fill="#7C7C7C" stroke="#7C7C7C" stroke-width="0.5"/>
</svg>
