<svg width="182" height="121" viewBox="0 0 182 121" fill="none" xmlns="http://www.w3.org/2000/svg">
<g clip-path="url(#clip0_171_6643)">
<path d="M153.662 77.8167H144.964C142.833 77.8167 141.047 76.3423 141.047 74.4746C141.047 73.5407 141.508 72.7052 142.199 72.1155C142.891 71.5257 143.87 71.1326 144.964 71.1326H146.231C147.326 71.1326 148.305 70.7394 148.996 70.1495C149.687 69.5598 150.148 68.7243 150.148 67.7904C150.148 65.972 148.42 64.4484 146.231 64.4484H119.689C118.981 64.4484 118.525 63.5834 118.525 62.8756C118.525 61.1064 116.854 59.681 114.781 59.681H104.91C104.655 59.681 104.412 59.58 104.232 59.4003C104.052 59.2206 103.951 58.9768 103.951 58.7227C103.951 58.4685 104.052 58.2247 104.232 58.045C104.412 57.8653 104.655 57.7643 104.91 57.7643H142.775C144.446 57.7643 146.001 57.1745 147.095 56.2407C148.19 55.3068 148.881 53.9799 148.881 52.5547C148.881 49.6549 146.116 47.3448 142.775 47.3448H123.235C120.153 47.3448 117.113 44.9367 114.032 44.9367H103.156C101.527 44.9367 100.207 43.6164 100.207 41.9878C100.207 40.3591 101.527 39.039 103.156 39.039H127.568C128.72 39.039 129.815 38.6457 130.564 38.0069C131.312 37.3678 131.773 36.4833 131.773 35.4511C131.773 33.4851 129.872 31.8633 127.568 31.8633H71.1756C70.0235 31.8633 68.929 32.2565 68.1803 32.8954C67.4315 33.5343 66.9707 34.419 66.9707 35.4511C66.9707 37.417 68.8716 39.039 71.1756 39.039H72.6157C74.5166 39.039 76.1294 40.366 76.1294 42.037C76.1294 42.8725 75.7262 43.6096 75.0926 44.1502C74.4589 44.6909 73.5948 45.0349 72.6157 45.0349H65.6457C64.4361 45.0349 63.284 45.4772 62.4777 46.1653C61.6713 46.8534 61.1528 47.7873 61.1528 48.8684C61.1528 50.9819 63.1688 52.6529 65.5882 52.6529H72.6732C74.9774 52.6529 76.8781 54.2747 76.8781 56.2407C76.8781 57.2237 76.4173 58.1084 75.6685 58.7473C74.9198 59.3861 73.883 59.7794 72.7309 59.7794H66.3947C65.3577 59.7794 64.4361 60.1234 63.7448 60.7131C63.0537 61.303 62.6506 62.0893 62.6506 62.974C62.6506 64.7432 64.321 66.1686 66.3947 66.1686H71.5213C74.459 66.1686 76.8207 68.1836 76.8207 70.6902C76.8207 71.9189 76.2445 73.0985 75.2654 73.8848C74.2861 74.7203 72.9612 75.2117 71.5213 75.2117H64.3784C62.9385 75.2117 61.6136 75.7034 60.692 76.5389C59.7127 77.3252 59.1367 78.4555 59.1367 79.6843C59.1367 82.1416 61.4984 84.1567 64.3784 84.1567H86.4232C88.8636 84.1567 91.2578 85.5328 93.6982 85.5328H97.6692C99.2299 85.5328 100.495 86.7981 100.495 88.359C100.495 89.9197 99.2299 91.1849 97.6692 91.1849H87.9379C86.6707 91.1849 85.5762 91.6272 84.7698 92.3153C83.9633 93.0034 83.4448 93.9863 83.4448 95.0184C83.4448 97.1319 85.4609 98.8521 87.9379 98.8521H147.844C149.112 98.8521 150.206 98.4096 151.012 97.7216C151.819 97.0335 152.337 96.0505 152.337 95.0184C152.337 92.9052 150.321 91.1849 147.844 91.1849H146.058C144.215 91.1849 142.775 89.907 142.775 88.3834C142.775 87.5971 143.121 86.909 143.754 86.4175C144.33 85.9261 145.195 85.582 146.116 85.582H153.662C154.929 85.582 156.024 85.1398 156.83 84.4517C157.637 83.7636 158.155 82.7807 158.155 81.7486C158.155 79.5369 156.139 77.8167 153.662 77.8167Z" fill="url(#paint0_linear_171_6643)"/>
<path d="M30.7447 59.2586H38.2455C40.0835 59.2586 41.6234 58.0691 41.6234 56.5623C41.6234 55.8088 41.226 55.1347 40.63 54.6589C40.0339 54.183 39.1893 53.8658 38.2455 53.8658H37.1527C36.2089 53.8658 35.3645 53.5486 34.7684 53.0728C34.1723 52.5969 33.7748 51.9229 33.7748 51.1695C33.7748 49.7024 35.2651 48.473 37.1527 48.473H60.1239C60.6876 48.473 61.0462 47.768 61.0462 47.2041C61.0462 45.7767 62.4867 44.6268 64.275 44.6268H72.8404C72.943 44.6285 73.0449 44.6097 73.1402 44.5716C73.2355 44.5335 73.3222 44.4768 73.3954 44.4048C73.4685 44.3328 73.5266 44.247 73.5662 44.1524C73.6059 44.0577 73.6263 43.9562 73.6263 43.8535C73.6263 43.7509 73.6059 43.6493 73.5662 43.5547C73.5266 43.4601 73.4685 43.3742 73.3954 43.3023C73.3222 43.2303 73.2355 43.1736 73.1402 43.1355C73.0449 43.0974 72.943 43.0786 72.8404 43.0803H40.1331C38.6926 43.0803 37.3513 42.6045 36.4075 41.8511C35.4637 41.0977 34.8676 40.027 34.8676 38.8771C34.8676 36.5376 37.2521 34.674 40.1331 34.674H57.0671C59.6855 34.674 62.3021 32.7309 64.9208 32.7309H74.4634C75.7775 32.7309 76.8425 31.6657 76.8425 30.3519C76.8425 29.0378 75.7773 27.9726 74.4634 27.9726H53.2473C52.2537 27.9726 51.3099 27.6554 50.6642 27.1399C50.0184 26.6245 49.6209 25.9108 49.6209 25.0781C49.6209 23.492 51.2603 22.1833 53.2473 22.1833H101.878C102.872 22.1833 103.816 22.5006 104.462 23.016C105.107 23.5315 105.505 24.2454 105.505 25.0781C105.505 26.6642 103.865 27.9726 101.878 27.9726H100.637C98.9974 27.9726 97.6065 29.0432 97.6065 30.3914C97.6065 31.0656 97.9542 31.6603 98.5007 32.0965C99.047 32.5327 99.7922 32.8104 100.637 32.8104H106.647C107.69 32.8104 108.684 33.1671 109.379 33.7223C110.075 34.2775 110.522 35.0309 110.522 35.9031C110.522 37.6082 108.783 38.9564 106.697 38.9564H100.587C98.5999 38.9564 96.9608 40.265 96.9608 41.8511C96.9608 42.6442 97.3581 43.3579 98.004 43.8734C98.6497 44.3889 99.5437 44.7061 100.537 44.7061H106.001C106.896 44.7061 107.69 44.9836 108.287 45.4595C108.883 45.9352 109.23 46.5697 109.23 47.2836C109.23 48.711 107.79 49.8609 106.001 49.8609H101.581C99.047 49.8609 97.0104 51.4867 97.0104 53.509C97.0104 54.5002 97.5071 55.4519 98.3517 56.0863C99.1961 56.7605 100.339 57.157 101.581 57.157H107.74C108.982 57.157 110.124 57.5537 110.919 58.2276C111.764 58.8621 112.26 59.7742 112.26 60.7654C112.26 62.748 110.224 64.3738 107.74 64.3738H88.6935C86.6044 64.3738 84.5448 65.4842 82.4559 65.4842H78.8743C77.6151 65.4842 76.5943 66.5048 76.5943 67.7643C76.5943 69.0235 77.6151 70.0441 78.8743 70.0441H87.4232C88.5162 70.0441 89.46 70.401 90.1553 70.9562C90.8509 71.5114 91.2978 72.3044 91.2978 73.1371C91.2978 74.8421 89.5592 76.23 87.4232 76.23H35.7618C34.669 76.23 33.7252 75.8731 33.0298 75.3181C32.3343 74.7629 31.8872 73.9697 31.8872 73.1371C31.8872 71.432 33.6257 70.0441 35.7618 70.0441H37.3017C38.8913 70.0441 40.1331 69.0132 40.1331 67.784C40.1331 67.1496 39.8351 66.5944 39.2887 66.1979C38.792 65.8014 38.0469 65.5237 37.2521 65.5237H30.7447C29.6519 65.5237 28.7081 65.167 28.0126 64.6118C27.3172 64.0566 26.8701 63.2637 26.8701 62.4308C26.8701 60.6464 28.6087 59.2586 30.7447 59.2586Z" fill="url(#paint1_linear_171_6643)"/>
<path fill-rule="evenodd" clip-rule="evenodd" d="M55.6927 30.4517H127.92C132.148 30.4517 135.568 33.9473 135.568 38.2562V41.3937C135.563 37.1307 132.145 33.6783 127.92 33.6783H55.6927C51.4704 33.6783 48.0449 37.1359 48.0449 41.3979V38.2562C48.0449 33.9473 51.4704 30.4517 55.6927 30.4517ZM48.0449 47.3917V81.9372C48.0449 86.246 51.4704 89.7417 55.6927 89.7417H127.92C132.143 89.7417 135.568 86.246 135.568 81.9372V47.3917H48.0449Z" fill="#669BF6"/>
<path d="M127.92 30.4517H55.6927C51.4704 30.4517 48.0449 33.9092 48.0449 38.1713V44.165H135.568V38.1713C135.568 33.9092 132.148 30.4517 127.92 30.4517Z" fill="#669BF6"/>
<path opacity="0.5" d="M86.16 38.115H97.8567M122.863 57.6767H104.915M122.863 66.9533H104.915M103.302 38.115H127.098M96.445 57.6767H60.145M96.445 66.9533H60.145M96.445 75.2217H60.145" stroke="#E1E4E5" stroke-width="2.76646" stroke-miterlimit="10" stroke-linecap="round" stroke-linejoin="round"/>
<path d="M110.36 82.6833C113.256 82.6833 115.603 80.3358 115.603 77.44C115.603 74.5442 113.256 72.1967 110.36 72.1967C107.464 72.1967 105.117 74.5442 105.117 77.44C105.117 80.3358 107.464 82.6833 110.36 82.6833Z" fill="white"/>
<path d="M117.419 82.6833C120.314 82.6833 122.662 80.3358 122.662 77.44C122.662 74.5442 120.314 72.1967 117.419 72.1967C114.523 72.1967 112.175 74.5442 112.175 77.44C112.175 80.3358 114.523 82.6833 117.419 82.6833Z" fill="#31446C"/>
<path fill-rule="evenodd" clip-rule="evenodd" d="M113.867 81.2791C114.891 80.3243 115.532 78.9634 115.532 77.4529C115.532 75.9424 114.891 74.5814 113.867 73.6267C112.843 74.5814 112.203 75.9424 112.203 77.4529C112.203 78.9634 112.843 80.3243 113.867 81.2791Z" fill="#31446C"/>
</g>
<defs>
<linearGradient id="paint0_linear_171_6643" x1="110.757" y1="136.41" x2="109.36" y2="-41.0221" gradientUnits="userSpaceOnUse">
<stop stop-color="white"/>
<stop offset="1" stop-color="#EEEEEE"/>
</linearGradient>
<linearGradient id="paint1_linear_171_6643" x1="67.7445" y1="106.532" x2="68.7994" y2="-36.6218" gradientUnits="userSpaceOnUse">
<stop stop-color="white"/>
<stop offset="1" stop-color="#EEEEEE"/>
</linearGradient>
<clipPath id="clip0_171_6643">
<rect width="181.5" height="121" fill="white" transform="translate(0.25)"/>
</clipPath>
</defs>
</svg>
