<svg width="24" height="24" viewBox="0 0 24 24" fill="none" xmlns="http://www.w3.org/2000/svg">
<path d="M5 7.808H14.046H13.212H13.523H5ZM5.38 6.808H18.6L17.27 5.212C17.2053 5.148 17.1313 5.09667 17.048 5.058C16.9647 5.01933 16.878 5 16.788 5H7.192C7.10267 5 7.016 5.01933 6.932 5.058C6.848 5.09667 6.77467 5.148 6.712 5.212L5.38 6.808ZM10 12.962L12 11.962L14 12.962V7.808H10V12.962ZM14.03 20H5.617C5.17233 20 4.792 19.8417 4.476 19.525C4.16 19.2083 4.00133 18.8287 4 18.386V7.486C4 7.298 4.031 7.11633 4.093 6.941C4.155 6.76567 4.24833 6.60567 4.373 6.461L5.931 4.591C6.07567 4.40033 6.25667 4.25433 6.474 4.153C6.69133 4.05167 6.92533 4.00067 7.176 4H16.786C17.0367 4 17.273 4.051 17.495 4.153C17.717 4.25433 17.902 4.40033 18.05 4.591L19.627 6.5C19.7517 6.65 19.845 6.814 19.907 6.992C19.969 7.16933 20 7.35333 20 7.544V11.31C19.8627 11.27 19.717 11.2423 19.563 11.227C19.4097 11.2117 19.2607 11.204 19.116 11.204H19V7.808H15V12.96C14.814 13.088 14.6293 13.26 14.446 13.476C14.2627 13.692 14.1293 13.9033 14.046 14.11L12 13.096L9 14.596V7.808H5V18.385C5 18.5643 5.05767 18.7117 5.173 18.827C5.28833 18.9423 5.436 19 5.616 19H13.523C13.583 19.1867 13.6577 19.3613 13.747 19.524C13.8363 19.686 13.931 19.8447 14.031 20M18.596 20.596V17.596H15.596V16.596H18.596V13.596H19.596V16.596H22.596V17.596H19.596V20.596H18.596Z" fill="#156064"/>
<path d="M5 7.808H14.046H13.212H13.523H5ZM5 7.808H9V14.596L12 13.096L14.046 14.11C14.1293 13.9033 14.2627 13.692 14.446 13.476C14.6293 13.26 14.814 13.088 15 12.96V7.808H19V11.204H19.116C19.2607 11.204 19.4097 11.2117 19.563 11.227C19.717 11.2423 19.8627 11.27 20 11.31V7.544C20 7.35333 19.969 7.16933 19.907 6.992C19.845 6.814 19.7517 6.65 19.627 6.5L18.05 4.591C17.902 4.40033 17.717 4.25433 17.495 4.153C17.273 4.051 17.0367 4 16.786 4H7.176C6.92533 4.00067 6.69133 4.05167 6.474 4.153C6.25667 4.25433 6.07567 4.40033 5.931 4.591L4.373 6.461C4.24833 6.60567 4.155 6.76567 4.093 6.941C4.031 7.11633 4 7.298 4 7.486V18.386C4.00133 18.8287 4.16 19.2083 4.476 19.525C4.792 19.8417 5.17233 20 5.617 20H14.03M5 7.808V18.385C5 18.5643 5.05767 18.7117 5.173 18.827C5.28833 18.9423 5.436 19 5.616 19H13.523C13.583 19.1867 13.6577 19.3613 13.747 19.524C13.8363 19.686 13.931 19.8447 14.031 20M5.38 6.808H18.6L17.27 5.212C17.2053 5.148 17.1313 5.09667 17.048 5.058C16.9647 5.01933 16.878 5 16.788 5H7.192C7.10267 5 7.016 5.01933 6.932 5.058C6.848 5.09667 6.77467 5.148 6.712 5.212L5.38 6.808ZM10 12.962L12 11.962L14 12.962V7.808H10V12.962ZM18.596 20.596V17.596H15.596V16.596H18.596V13.596H19.596V16.596H22.596V17.596H19.596V20.596H18.596Z" stroke="#156064"/>
</svg>
