<svg width="100" height="100" viewBox="0 0 100 100" fill="none" xmlns="http://www.w3.org/2000/svg">
<path d="M0 50C0 22.3858 22.3858 0 50 0C77.6142 0 100 22.3858 100 50C100 77.6142 77.6142 100 50 100C22.3858 100 0 77.6142 0 50Z" fill="#EFF4F3"/>
<g clip-path="url(#clip0_171_6691)">
<path fill-rule="evenodd" clip-rule="evenodd" d="M68.5148 34.2517C68.7896 34.4788 69.017 34.7577 69.1841 35.0727C69.3511 35.3876 69.4545 35.7324 69.4882 36.0873C69.522 36.4421 69.4855 36.8002 69.3809 37.141C69.2763 37.4818 69.1056 37.7986 68.8785 38.0734L47.0556 64.4834L47.0475 64.4889C46.5517 65.0857 45.9288 65.5643 45.2245 65.8898C44.5201 66.2152 43.7519 66.3792 42.976 66.3699C42.1885 66.3609 41.4133 66.1735 40.7086 65.8219C40.0039 65.4702 39.388 64.9634 38.9073 64.3396L38.9046 64.3342L32.07 55.5507C31.8418 55.2704 31.6719 54.9473 31.5703 54.6005C31.4686 54.2536 31.4372 53.8899 31.478 53.5307C31.5188 53.1716 31.631 52.8242 31.8078 52.509C31.9847 52.1937 32.2227 51.917 32.508 51.695C32.7933 51.473 33.12 51.3102 33.469 51.2162C33.8181 51.1222 34.1823 51.0988 34.5405 51.1475C34.8987 51.1962 35.2435 51.3159 35.5548 51.4997C35.8661 51.6834 36.1375 51.9275 36.3532 52.2176L43.0412 60.8137L64.6903 34.6154C64.9174 34.3406 65.1963 34.1132 65.5113 33.9461C65.8262 33.7791 66.171 33.6757 66.5258 33.642C66.8807 33.6082 67.2388 33.6447 67.5796 33.7493C67.9204 33.8539 68.2372 34.0246 68.512 34.2517H68.5148Z" fill="#156064"/>
</g>
<defs>
<clipPath id="clip0_171_6691">
<rect width="38" height="38" fill="white" transform="translate(31.5 31)"/>
</clipPath>
</defs>
</svg>
