<svg width="40" height="40" viewBox="0 0 40 40" fill="none" xmlns="http://www.w3.org/2000/svg">
<path d="M0 20C0 8.95431 8.95431 0 20 0C31.0457 0 40 8.95431 40 20C40 31.0457 31.0457 40 20 40C8.95431 40 0 31.0457 0 20Z" fill="#FFAE00"/>
<path d="M20 12.875V15.5M20 12.875C20 12.3558 20.154 11.8483 20.4424 11.4166C20.7308 10.985 21.1408 10.6485 21.6205 10.4498C22.1001 10.2511 22.6279 10.1992 23.1371 10.3004C23.6463 10.4017 24.114 10.6517 24.4812 11.0188C24.8483 11.386 25.0983 11.8537 25.1996 12.3629C25.3008 12.8721 25.2489 13.3999 25.0502 13.8795C24.8515 14.3592 24.5151 14.7692 24.0834 15.0576C23.6517 15.346 23.1442 15.5 22.625 15.5H20M20 12.875C20 12.3558 19.846 11.8483 19.5576 11.4166C19.2692 10.985 18.8592 10.6485 18.3795 10.4498C17.8999 10.2511 17.3721 10.1992 16.8629 10.3004C16.3537 10.4017 15.886 10.6517 15.5188 11.0188C15.1517 11.386 14.9017 11.8537 14.8004 12.3629C14.6992 12.8721 14.7511 13.3999 14.9498 13.8795C15.1485 14.3592 15.485 14.7692 15.9166 15.0576C16.3483 15.346 16.8558 15.5 17.375 15.5H20" stroke="white" stroke-width="2" stroke-miterlimit="10" stroke-linecap="round"/>
<path d="M27.5 15.5H12.5C11.6716 15.5 11 16.1716 11 17V19.25C11 20.0784 11.6716 20.75 12.5 20.75H27.5C28.3284 20.75 29 20.0784 29 19.25V17C29 16.1716 28.3284 15.5 27.5 15.5Z" stroke="white" stroke-width="2" stroke-linecap="round" stroke-linejoin="round"/>
<path d="M27.5 20.75V27.5C27.5 28.0967 27.2629 28.669 26.841 29.091C26.419 29.5129 25.8467 29.75 25.25 29.75H14.75C14.1533 29.75 13.581 29.5129 13.159 29.091C12.7371 28.669 12.5 28.0967 12.5 27.5V20.75M20 15.5V29.75" stroke="white" stroke-width="2" stroke-linecap="round" stroke-linejoin="round"/>
</svg>
