<svg width="16" height="16" viewBox="0 0 16 16" fill="none" xmlns="http://www.w3.org/2000/svg">
<path d="M9.27698 8.33333L9.27685 8.33318L9.27698 8.33333ZM9.27698 8.33333L9.27693 8.33346L9.27698 8.33333ZM8.88122 7.89301L8.99796 7.72789L8.88122 7.89301ZM8.88122 7.89301V7.89301ZM8.33398 8.66633L8.01972 8.77731C8.01978 8.77748 8.01984 8.77766 8.0199 8.77783L8.33398 8.66633ZM8.33398 8.66633V8.66673V8.66633ZM9.49983 8.58126L9.33398 8.39675L9.49983 8.58126ZM7.67574 8.33344L8.33398 8.33333H7.66732C7.67013 8.33333 7.67294 8.33337 7.67574 8.33344Z" fill="#7C7C7C" stroke="#7C7C7C" stroke-width="2"/>
<mask id="path-2-inside-1_145_8341" fill="white">
<path fill-rule="evenodd" clip-rule="evenodd" d="M4.38498 2.87367C5.20298 2.47333 6.54498 2 8.01364 2C9.45164 2 10.7583 2.45367 11.572 2.84867L11.618 2.871C11.8633 2.99233 12.0613 3.107 12.2006 3.2L10.9693 5C13.808 7.902 16.0006 13.999 8.01364 13.999C0.0266445 13.999 2.16031 8.01267 5.02364 5L3.80031 3.2C3.89464 3.13833 4.01431 3.06667 4.15698 2.99067C4.22764 2.95267 4.30364 2.91344 4.38498 2.87367ZM10.178 4.97633L11.1636 3.53533C10.247 3.60133 9.15631 3.81667 8.10631 4.12067C7.35631 4.33733 6.52298 4.30433 5.75131 4.162C5.55685 4.126 5.36372 4.08308 5.17231 4.03333L5.81231 4.97567C7.18398 5.464 8.80598 5.464 10.178 4.97633ZM5.42731 5.54333C7.03231 6.16333 8.96131 6.16333 10.5663 5.54267C11.2361 6.24904 11.7965 7.05158 12.229 7.92367C12.6796 8.843 12.925 9.762 12.885 10.554C12.8463 11.3183 12.5456 11.9713 11.859 12.4567C11.1433 12.9623 9.93964 13.3323 8.01331 13.3323C6.08498 13.3323 4.87564 12.9687 4.15331 12.4687C3.46164 11.9897 3.15798 11.3453 3.11498 10.5913C3.06998 9.808 3.30998 8.89367 3.75898 7.968C4.18731 7.08533 4.78498 6.23567 5.42731 5.54333ZM5.04398 3.30533C5.31064 3.38467 5.58931 3.45367 5.87198 3.506C6.58864 3.638 7.30731 3.65733 7.92064 3.47967C8.63536 3.27137 9.36231 3.10761 10.0973 2.98933C9.48398 2.80467 8.76664 2.66667 8.01331 2.66667C6.86498 2.66667 5.79398 2.987 5.04398 3.30533Z"/>
</mask>
<path fill-rule="evenodd" clip-rule="evenodd" d="M4.38498 2.87367C5.20298 2.47333 6.54498 2 8.01364 2C9.45164 2 10.7583 2.45367 11.572 2.84867L11.618 2.871C11.8633 2.99233 12.0613 3.107 12.2006 3.2L10.9693 5C13.808 7.902 16.0006 13.999 8.01364 13.999C0.0266445 13.999 2.16031 8.01267 5.02364 5L3.80031 3.2C3.89464 3.13833 4.01431 3.06667 4.15698 2.99067C4.22764 2.95267 4.30364 2.91344 4.38498 2.87367ZM10.178 4.97633L11.1636 3.53533C10.247 3.60133 9.15631 3.81667 8.10631 4.12067C7.35631 4.33733 6.52298 4.30433 5.75131 4.162C5.55685 4.126 5.36372 4.08308 5.17231 4.03333L5.81231 4.97567C7.18398 5.464 8.80598 5.464 10.178 4.97633ZM5.42731 5.54333C7.03231 6.16333 8.96131 6.16333 10.5663 5.54267C11.2361 6.24904 11.7965 7.05158 12.229 7.92367C12.6796 8.843 12.925 9.762 12.885 10.554C12.8463 11.3183 12.5456 11.9713 11.859 12.4567C11.1433 12.9623 9.93964 13.3323 8.01331 13.3323C6.08498 13.3323 4.87564 12.9687 4.15331 12.4687C3.46164 11.9897 3.15798 11.3453 3.11498 10.5913C3.06998 9.808 3.30998 8.89367 3.75898 7.968C4.18731 7.08533 4.78498 6.23567 5.42731 5.54333ZM5.04398 3.30533C5.31064 3.38467 5.58931 3.45367 5.87198 3.506C6.58864 3.638 7.30731 3.65733 7.92064 3.47967C8.63536 3.27137 9.36231 3.10761 10.0973 2.98933C9.48398 2.80467 8.76664 2.66667 8.01331 2.66667C6.86498 2.66667 5.79398 2.987 5.04398 3.30533Z" fill="#7C7C7C"/>
<path d="M4.38498 2.87367L5.26366 4.67031L5.26415 4.67007L4.38498 2.87367ZM11.572 2.84867L12.4455 1.0495L12.4454 1.04947L11.572 2.84867ZM11.618 2.871L12.5046 1.07827L12.4981 1.07503L12.4915 1.07184L11.618 2.871ZM12.2006 3.2L13.8514 4.32921L14.9935 2.65956L13.311 1.53651L12.2006 3.2ZM10.9693 5L9.31859 3.87079L8.39198 5.22533L9.53958 6.39853L10.9693 5ZM5.02364 5L6.47333 6.37783L7.58401 5.20922L6.67778 3.8758L5.02364 5ZM3.80031 3.2L2.70597 1.52596L1.00162 2.64011L2.14617 4.3242L3.80031 3.2ZM4.15698 2.99067L5.09731 4.75584L5.10419 4.75214L4.15698 2.99067ZM10.178 4.97633L10.8478 6.86083L11.4612 6.6428L11.8287 6.10548L10.178 4.97633ZM11.1636 3.53533L12.8144 4.66448L15.1549 1.24279L11.02 1.5405L11.1636 3.53533ZM8.10631 4.12067L8.66139 6.0421L8.66252 6.04177L8.10631 4.12067ZM5.75131 4.162L5.3872 6.12858L5.38853 6.12882L5.75131 4.162ZM5.17231 4.03333L5.67538 2.09764L0.532186 0.760978L3.51782 5.15701L5.17231 4.03333ZM5.81231 4.97567L4.15782 6.09934L4.52531 6.64044L5.14152 6.85982L5.81231 4.97567ZM5.42731 5.54333L6.14799 3.67769L4.88328 3.18914L3.96115 4.18305L5.42731 5.54333ZM10.5663 5.54267L12.0176 4.16654L11.0953 3.19379L9.84495 3.67729L10.5663 5.54267ZM12.229 7.92367L14.0248 7.04332L14.0208 7.03512L12.229 7.92367ZM12.885 10.554L14.8824 10.655L14.8824 10.6549L12.885 10.554ZM11.859 12.4567L13.0131 14.0901L13.0133 14.0899L11.859 12.4567ZM4.15331 12.4687L3.01464 14.1129L3.01501 14.1131L4.15331 12.4687ZM3.11498 10.5913L5.11173 10.4775L5.11169 10.4766L3.11498 10.5913ZM3.75898 7.968L1.95965 7.09484L1.9595 7.09515L3.75898 7.968ZM5.04398 3.30533L4.26256 1.4643L-0.855821 3.63677L4.47368 5.2223L5.04398 3.30533ZM5.87198 3.506L5.50788 5.47258L5.5097 5.47291L5.87198 3.506ZM7.92064 3.47967L8.47712 5.4007L8.48025 5.39978L7.92064 3.47967ZM10.0973 2.98933L10.4151 4.96393L10.6739 1.07425L10.0973 2.98933ZM5.26415 4.67007C5.90683 4.35554 6.94304 4 8.01364 4V0C6.14692 0 4.49912 0.59113 3.50581 1.07726L5.26415 4.67007ZM8.01364 4C9.05924 4 10.0627 4.3392 10.6985 4.64786L12.4454 1.04947C11.4539 0.568133 9.84405 0 8.01364 0V4ZM10.6985 4.64783L10.7445 4.67016L12.4915 1.07184L12.4455 1.0495L10.6985 4.64783ZM10.7314 4.66373C10.9174 4.75575 11.0377 4.82833 11.0903 4.86349L13.311 1.53651C13.085 1.38567 12.8092 1.22891 12.5046 1.07827L10.7314 4.66373ZM10.5499 2.07079L9.31859 3.87079L12.62 6.12921L13.8514 4.32921L10.5499 2.07079ZM9.53958 6.39853C10.1063 6.97791 10.6496 7.72944 11.0322 8.51027C11.4238 9.30963 11.5784 9.99758 11.5537 10.4868C11.5331 10.8927 11.4032 11.1464 11.0902 11.3675C10.689 11.651 9.7998 11.999 8.01364 11.999V15.999C10.221 15.999 12.0529 15.5849 13.3982 14.6345C14.8317 13.6217 15.4737 12.1698 15.5486 10.6887C15.6192 9.29092 15.1926 7.9105 14.6243 6.75048C14.0469 5.57194 13.2516 4.47309 12.399 3.60147L9.53958 6.39853ZM8.01364 11.999C6.22238 11.999 5.32257 11.656 4.91292 11.3723C4.59443 11.1518 4.46878 10.9048 4.44651 10.5151C4.41924 10.0379 4.56761 9.35687 4.95905 8.55017C5.34082 7.76339 5.88914 6.99249 6.47333 6.37783L3.57396 3.62217C2.72648 4.51385 1.93435 5.62098 1.36033 6.80396C0.79599 7.967 0.373255 9.34739 0.453027 10.7434C0.537802 12.2269 1.19733 13.6648 2.63565 14.6608C3.98281 15.5937 5.81141 15.999 8.01364 15.999V11.999ZM6.67778 3.8758L5.45445 2.0758L2.14617 4.3242L3.36951 6.1242L6.67778 3.8758ZM4.89465 4.87404C4.93628 4.84683 5.00432 4.80536 5.0973 4.75583L3.21666 1.2255C3.0243 1.32798 2.85301 1.42984 2.70597 1.52596L4.89465 4.87404ZM5.10419 4.75214C5.15361 4.72557 5.20675 4.69814 5.26366 4.67031L3.50629 1.07703C3.40054 1.12875 3.30168 1.17977 3.20977 1.22919L5.10419 4.75214ZM11.8287 6.10548L12.8144 4.66448L9.51288 2.40618L8.52721 3.84719L11.8287 6.10548ZM11.02 1.5405C9.92905 1.61905 8.6967 1.8676 7.55011 2.19956L8.66252 6.04177C9.61592 5.76574 10.5649 5.58362 11.3073 5.53017L11.02 1.5405ZM7.55123 2.19924C7.21046 2.29768 6.71899 2.30675 6.11409 2.19518L5.38853 6.12882C6.32696 6.30192 7.50216 6.37698 8.66139 6.0421L7.55123 2.19924ZM6.11542 2.19542C5.96762 2.16806 5.82085 2.13544 5.67538 2.09764L4.66924 5.96903C4.9066 6.03072 5.14607 6.08393 5.3872 6.12858L6.11542 2.19542ZM3.51782 5.15701L4.15782 6.09934L7.46681 3.85199L6.82681 2.90966L3.51782 5.15701ZM5.14152 6.85982C6.9471 7.50263 9.04258 7.50248 10.8478 6.86083L9.50815 3.09184C8.56937 3.42552 7.42086 3.42537 6.4831 3.09151L5.14152 6.85982ZM4.70663 7.40897C6.77539 8.20812 9.21851 8.20821 11.2877 7.40805L9.84495 3.67729C8.70411 4.11846 7.28924 4.11855 6.14799 3.67769L4.70663 7.40897ZM9.11501 6.91879C9.64763 7.48051 10.0933 8.11871 10.4372 8.81221L14.0208 7.03512C13.4997 5.98445 12.8246 5.01757 12.0176 4.16654L9.11501 6.91879ZM10.4331 8.804C10.7952 9.54258 10.9046 10.1153 10.8875 10.4531L14.8824 10.6549C14.9454 9.4087 14.5641 8.14342 14.0248 7.04333L10.4331 8.804ZM10.8875 10.453C10.8801 10.6005 10.8518 10.6656 10.8399 10.6885C10.8313 10.7051 10.8057 10.752 10.7046 10.8234L13.0133 14.0899C14.2584 13.2099 14.8165 11.9589 14.8824 10.655L10.8875 10.453ZM10.7049 10.8233C10.4613 10.9954 9.72897 11.3323 8.01331 11.3323V15.3323C10.1503 15.3323 11.8254 14.9293 13.0131 14.0901L10.7049 10.8233ZM8.01331 11.3323C6.29072 11.3323 5.54546 10.9999 5.29161 10.8242L3.01501 14.1131C4.20583 14.9374 5.87924 15.3323 8.01331 15.3323V11.3323ZM5.29198 10.8245C5.18773 10.7523 5.16307 10.706 5.15644 10.6935C5.1468 10.6754 5.1197 10.6171 5.11173 10.4775L1.11822 10.7052C1.1925 12.0077 1.76414 13.2469 3.01464 14.1129L5.29198 10.8245ZM5.11169 10.4766C5.0931 10.1532 5.19569 9.58874 5.55846 8.84085L1.9595 7.09515C1.42426 8.1986 1.04685 9.46284 1.11827 10.706L5.11169 10.4766ZM5.55831 8.84116C5.89393 8.14954 6.37541 7.462 6.89348 6.90361L3.96115 4.18305C3.19454 5.00933 2.48069 6.02113 1.95965 7.09484L5.55831 8.84116ZM4.47368 5.2223C4.80053 5.31954 5.14824 5.406 5.50788 5.47258L6.23607 1.53942C6.03038 1.50134 5.82076 1.4498 5.61428 1.38837L4.47368 5.2223ZM5.5097 5.47291C6.3916 5.63535 7.45311 5.69732 8.47712 5.40069L7.36417 1.55864C7.16151 1.61735 6.78568 1.64065 6.23426 1.53908L5.5097 5.47291ZM8.48025 5.39978C9.11555 5.21463 9.76173 5.06906 10.4151 4.96393L9.77956 1.01474C8.9629 1.14615 8.15517 1.32811 7.36104 1.55955L8.48025 5.39978ZM10.6739 1.07425C9.91928 0.847042 9.00456 0.666667 8.01331 0.666667V4.66667C8.52872 4.66667 9.04868 4.76229 9.52071 4.90441L10.6739 1.07425ZM8.01331 0.666667C6.51547 0.666667 5.17228 1.07818 4.26256 1.4643L5.82539 5.14636C6.41568 4.89582 7.21449 4.66667 8.01331 4.66667V0.666667Z" fill="#7C7C7C" mask="url(#path-2-inside-1_145_8341)"/>
</svg>
